<svg id="Warstwa_1" data-name="Warstwa 1" xmlns="http://www.w3.org/2000/svg" xmlns:xlink="http://www.w3.org/1999/xlink" viewBox="0 0 48.28 57.11"><defs><style>.cls-1,.cls-2{fill:none;}.cls-2{stroke:#212121;stroke-miterlimit:10;stroke-width:2px;}.cls-3{isolation:isolate;}.cls-4{clip-path:url(#clip-path);}.cls-5{fill:#f6c920;}</style><clipPath id="clip-path" transform="translate(-7.86 -3.44)"><polygon class="cls-1" points="35 46.81 34.98 40.86 52.52 30.73 52.54 36.69 35 46.81"/></clipPath></defs><line class="cls-2" x1="24.14" y1="29.87" x2="24.14" y2="55.69"/><polyline class="cls-2" points="1 15.96 24.14 30.68 47.28 15.96"/><line class="cls-2" x1="24.14" y1="30.68" x2="24.14" y2="55.93"/><polygon class="cls-2" points="47.28 15.96 24.14 1.19 1 15.96 1 41.2 24.14 55.93 47.28 41.2 47.28 15.96"/><g class="cls-3"><g class="cls-4"><polyline class="cls-5" points="31.78 35.28 30.11 36.31 28.69 39.09 28.63 37.23 27.13 38.16 27.3 43.28 28.8 42.35 28.76 41.09 29.08 40.44 30.27 41.44 32.04 40.35 30.04 38.65 31.78 35.28"/><polyline class="cls-5" points="36.73 32.23 35.07 33.25 33.64 36.03 33.58 34.17 32.08 35.1 32.25 40.22 33.75 39.29 33.71 38.03 34.04 37.38 35.23 38.38 37 37.29 35 35.59 36.73 32.23"/><path class="cls-5" d="M47.91,33.62l-3,1.89,0,1.3,1.55-1,.06,1.95a1.2,1.2,0,0,1-.1.55,1.06,1.06,0,0,1-.37.39.58.58,0,0,1-.36.1.77.77,0,0,1-.37-.17l-.79,1.61a.94.94,0,0,0,.73.13,2.91,2.91,0,0,0,.9-.36l.07,0a3.9,3.9,0,0,0,1.38-1.39A3.55,3.55,0,0,0,48,36.76l-.11-3.14" transform="translate(-7.86 -3.44)"/><path class="cls-5" d="M50.62,31.83a.41.41,0,0,0-.11.07,5,5,0,0,0-1.15.94,4.13,4.13,0,0,0-.7,1.06,2.34,2.34,0,0,0-.2,1,.8.8,0,0,0,.28.73.84.84,0,0,0,.63.09,5.49,5.49,0,0,0,.88-.27,3.1,3.1,0,0,1,.59-.19c.12,0,.19,0,.19.14a.42.42,0,0,1-.13.28,2.11,2.11,0,0,1-.45.36l-.07,0a3,3,0,0,1-.71.3,2.28,2.28,0,0,1-.74.12l-.45,1.56a2.41,2.41,0,0,0,.9-.17,5,5,0,0,0,.92-.42l.18-.11a5.41,5.41,0,0,0,1.15-.94,4.18,4.18,0,0,0,.7-1.07,2.57,2.57,0,0,0,.2-1c0-.37-.11-.61-.29-.71a.86.86,0,0,0-.64-.09,5.9,5.9,0,0,0-.88.29,3.07,3.07,0,0,1-.58.19c-.11,0-.18,0-.18-.12s.19-.45.58-.69l.07,0a2.61,2.61,0,0,1,1.2-.36l.42-1.53a2.31,2.31,0,0,0-.8.16,4.22,4.22,0,0,0-.81.38" transform="translate(-7.86 -3.44)"/></g></g></svg>